PathFileType	4	(X/Y/Z)	Patient4_TMGait_0pt2_02_right_18.trc.trc
DataRate	CameraRate	NumFrames	NumMarkers	Units	OrigDataRate	OrigDataStartFrame	OrigNumFrames
47.945205479452	47.945205479452	4	33	mm	47.945205479452	36	       141
Frame#	Time	R.Midfoot.Superior			Sacral			L.Shoulder			Chest			R.Shoulder			Neck			R.ASIS			L.ASIS			R.Thigh.Superior			R.Thigh.Lateral			R.Thigh.Inferior			R.Patella			L.Thigh.Superior			L.Thigh.Lateral			L.Thigh.Inferior			L.Patella			L.Shank.Superior			L.Shank.Lateral			L.Shank.Inferior			R.Shank.Superior			R.Shank.Lateral			R.Shank.Inferior			R.Heel			R.Midfoot.Lateral			R.Toe			L.Heel			L.Midfoot.Lateral			L.Midfoot.Superior			L.Toe			L.Elbow			L.Wrist			R.Elbow			R.Wrist			
		X1	Y1	Z1	X2	Y2	Z2	X3	Y3	Z3	X4	Y4	Z4	X5	Y5	Z5	X6	Y6	Z6	X7	Y7	Z7	X8	Y8	Z8	X9	Y9	Z9	X10	Y10	Z10	X11	Y11	Z11	X12	Y12	Z12	X13	Y13	Z13	X14	Y14	Z14	X15	Y15	Z15	X16	Y16	Z16	X17	Y17	Z17	X18	Y18	Z18	X19	Y19	Z19	X20	Y20	Z20	X21	Y21	Z21	X22	Y22	Z22	X23	Y23	Z23	X24	Y24	Z24	X25	Y25	Z25	X26	Y26	Z26	X27	Y27	Z27	X28	Y28	Z28	X29	Y29	Z29	X30	Y30	Z30	X31	Y31	Z31	X32	Y32	Z32	X33	Y33	Z33	

36	40.720000000000	1174.337874625730	98.199825301326	603.704029501010	907.069947324371	1004.221328902797	454.804858197317	1103.356899158503	1429.594627166906	288.436914817957	1175.668705266873	1367.632226767340	466.674524002460	1064.736583231048	1447.489918003721	620.662085142457	1055.067267173821	1495.763607218101	439.148202756250	1123.027803999816	944.630867826265	600.148609514189	1138.486509978897	959.778273112783	323.792573212741	1178.807948075139	746.196864383783	571.058059474160	1105.168468876490	633.776372329219	634.288798489120	1187.110791848350	583.898365305155	556.654482591374	1195.162480651340	496.209809185890	567.270100293326	1132.853754461758	730.257913794943	347.169437285568	1015.534242641282	636.130926876988	278.085927094913	1072.985343201811	542.501554684289	341.020362518460	1056.423361701154	475.366922417680	347.269979230346	1018.163316444163	412.333394918287	336.571487119174	908.708515528874	316.093291509993	284.233687756270	942.690890692842	194.078089993950	349.339752242851	1166.120885226541	406.826549020678	579.213886537769	1096.186761239568	307.455115631832	649.859040719283	1136.115567087922	208.509981401678	591.391405035719	1001.959928817114	43.494108017934	578.070278866952	1089.332953768144	37.327301331349	647.448093808894	1296.030380053858	47.939721638043	624.822028422178	795.641439420210	50.130515441602	391.014109055632	868.263056408531	41.791195833131	310.542387412662	955.568409777085	98.303408880444	334.822717802215	1079.472383987875	38.826312736900	304.049888229019	1212.093315753468	1102.457549245628	165.721282540433	1469.217124197597	1089.191430201444	194.859514475350	912.690432313080	1143.022350555083	733.543127940913	880.670998271965	883.480819173126	759.120879606205	
37	40.740857142857	1170.318674363642	98.104698091518	603.716130260377	908.423438310617	1004.682894077102	461.479814038801	1103.032021424356	1429.693588796986	291.833790249908	1177.127163255965	1368.130966766216	469.475871083615	1067.591981294096	1448.267572894927	624.309125763980	1056.372201412448	1496.235324435569	442.700594431464	1125.315908514300	945.324926937331	605.046748695258	1138.522498847063	959.965148979270	328.415910158737	1179.326338670540	746.007655207265	575.188189573865	1104.802166282952	633.707599762350	637.847020349382	1186.076835457363	583.546189375667	559.777465841219	1193.510128950176	495.628165863840	569.591862459079	1133.111140910266	730.725766808416	350.872181674255	1015.474119494701	636.949669479178	281.860021529711	1073.676824731709	542.712164874502	343.446216763060	1057.417915579394	475.000030755299	348.969808151441	1017.938411022682	412.440093751431	338.245770994657	906.931100846397	317.800723675388	286.011631994761	940.161646318773	194.740045626883	349.597550665372	1164.029432776895	406.489179906768	580.910475194078	1093.913496133556	307.042744993263	651.173905110164	1132.933617743713	208.281871411833	591.871820199382	997.875421046043	43.596203502570	578.051620827993	1085.250276681102	37.371443072457	647.396312344059	1292.015159141616	47.503125376432	624.945803658668	791.799838830759	51.883823912802	390.793190731906	864.428324875867	42.529893533678	310.411770377625	952.176093609147	98.623674430929	334.433147605169	1075.599440623365	38.634199640402	303.919863597843	1205.185188381623	1099.334118003289	170.116641960897	1461.864548426682	1074.248048711041	198.327355903679	918.895125965534	1142.640498909172	740.274095224828	889.198613570495	883.065900093438	767.623567902629	
38	40.761714285714	1166.262251154870	97.984429479094	603.687393626301	909.863735383833	1005.049995818687	468.225098292776	1102.362320485884	1429.716814300269	295.165375479753	1178.359126293384	1368.698125037495	472.185649910444	1070.209451513836	1449.025825066731	627.891389084528	1057.378942879174	1496.663908685524	446.175334704864	1127.731588681983	945.967997566126	609.919029900756	1138.636033361385	960.235622562726	333.094416891281	1179.973792395661	745.803755262518	579.191660945939	1104.631556970322	633.591298915369	641.377898321369	1185.161054401400	583.174412925277	562.828097637392	1191.921987181617	495.020349688750	571.898089621045	1133.668477654554	731.214672917105	354.534134390253	1015.756314323142	637.666159673635	285.630206872921	1074.897003601474	542.841386526350	345.753960184647	1058.977282326341	474.458209534315	350.450246408662	1018.114258661792	412.420351609367	339.775209002758	905.432302342791	319.527997382878	287.748799728717	937.803923388515	195.397527063343	349.764130234032	1161.988433134698	406.116329731986	582.606761543153	1091.643201933938	306.603813909050	652.462091734872	1129.754814633582	208.033897719219	592.345269088675	993.738890995904	43.717897267222	578.010313889805	1081.122956457605	37.418294720890	647.316485883058	1287.953693148468	47.032490957542	625.040697637372	787.981284696128	53.735453932374	390.514249234709	860.592716267479	43.228510725892	310.230023355613	948.859112155388	98.877115157007	333.933363533420	1071.738289855120	38.470566119456	303.784288438035	1197.400036879096	1095.919094849751	174.848262159699	1452.719535372105	1057.169657499866	201.670290416651	925.831086355045	1141.674296580509	746.879442705251	899.511296811522	881.977920802855	775.985581935324	
39	40.782571428571	1162.175007305186	97.847129500180	603.635009186281	911.349080171238	1005.310788628282	475.050173943758	1101.322882657773	1429.658304291062	298.469879325839	1179.350241821791	1369.304980999057	474.826314160112	1072.598646683894	1449.725852580452	631.449091488908	1058.064127895473	1497.026753496713	449.627659580059	1130.273839606158	946.541462394617	614.739544442804	1138.781969613382	960.571076786978	337.808682446010	1180.790115214249	745.581275107646	583.051575782995	1104.732616280349	633.420040475112	644.884564254276	1184.436054960352	582.781114797973	565.795834385987	1190.485555975566	494.375258346933	574.190206439408	1134.582847036338	731.702214507445	358.147838785365	1016.510516363057	638.207794560396	289.369801582205	1076.830260521895	542.852715846037	347.930530581031	1061.275191699343	473.692162860955	351.690875024746	1018.853256692092	412.224870380275	341.145047487120	904.355975287169	321.288236569122	289.431685696437	935.704136466939	196.064950851708	349.832507770513	1160.062434712638	405.695330507347	584.312393446957	1089.432433734030	306.138445784651	653.745612535338	1126.609998670296	207.758363267532	592.826481298772	989.565238900662	43.854379230414	577.962724417465	1076.962228343097	37.466276341126	647.227359913712	1283.857505142844	46.551446115093	625.115427551963	784.217402409379	55.804300686057	390.170313115594	856.759929051901	43.962807401344	309.995740478008	945.644696670240	99.071776794711	333.319441516119	1067.854056247061	38.320474838053	303.652863373836	1188.839359170442	1092.299140082354	179.948406749193	1441.518758127969	1038.043872606316	204.899113245764	933.599263552128	1140.071053104570	753.348291801213	911.796202842272	880.180757681520	784.111128829083	
